<?xml version="1.0" encoding="UTF-8" standalone="no"?>
<!DOCTYPE svg PUBLIC "-//W3C//DTD SVG 1.1//EN"
 "http://www.w3.org/Graphics/SVG/1.1/DTD/svg11.dtd">
<!-- Generated by graphviz version 14.1.3 (20260303.0454)
 -->
<!-- Pages: 1 -->
<svg width="314pt" height="1401pt"
 viewBox="0.00 0.00 314.00 1401.00" xmlns="http://www.w3.org/2000/svg" xmlns:xlink="http://www.w3.org/1999/xlink">
<g id="graph0" class="graph" transform="scale(1 1) rotate(0) translate(4 1397.3)">
<polygon fill="white" stroke="none" points="-4,4 -4,-1397.3 310.35,-1397.3 310.35,4 -4,4"/>
<!-- +5V -->
<g id="node1" class="node">
<title>+5V</title>
<ellipse fill="black" stroke="black" cx="239.75" cy="-1196.3" rx="1.8" ry="1.8"/>
<text xml:space="preserve" text-anchor="middle" x="225.58" y="-1181.2" font-family="Times New Roman,serif" font-size="14.00">+5V</text>
</g>
<!-- C1 -->
<g id="node2" class="node">
<title>C1</title>
<polygon fill="none" stroke="black" points="171,-1285.3 117,-1285.3 117,-1249.3 171,-1249.3 171,-1285.3"/>
<text xml:space="preserve" text-anchor="middle" x="144" y="-1262.25" font-family="Times New Roman,serif" font-size="14.00">C1</text>
<text xml:space="preserve" text-anchor="middle" x="101.25" y="-1236" font-family="Times New Roman,serif" font-size="14.00">0.1uF</text>
</g>
<!-- C1&#45;&gt;+5V -->
<g id="edge1" class="edge">
<title>C1&#45;&gt;+5V</title>
<path fill="none" stroke="black" d="M166.95,-1248.81C170.25,-1245.98 173.6,-1243.08 176.75,-1240.3 193.02,-1225.93 194.49,-1219.03 212.75,-1207.3 221.66,-1201.58 234.04,-1197.68 237.7,-1196.6"/>
</g>
<!-- GND16 -->
<g id="node39" class="node">
<title>GND16</title>
<ellipse fill="black" stroke="black" cx="239.75" cy="-1267.3" rx="1.8" ry="1.8"/>
<text xml:space="preserve" text-anchor="middle" x="223.33" y="-1252.2" font-family="Times New Roman,serif" font-size="14.00">GND</text>
</g>
<!-- C1&#45;&gt;GND16 -->
<g id="edge32" class="edge">
<title>C1&#45;&gt;GND16</title>
<path fill="none" stroke="black" d="M171.11,-1267.3C196.25,-1267.3 231.38,-1267.3 237.74,-1267.3"/>
</g>
<!-- J2 -->
<g id="node3" class="node">
<title>J2</title>
<polygon fill="none" stroke="black" points="171,-1231.3 117,-1231.3 117,-1195.3 171,-1195.3 171,-1231.3"/>
<text xml:space="preserve" text-anchor="middle" x="144" y="-1208.25" font-family="Times New Roman,serif" font-size="14.00">J2</text>
<text xml:space="preserve" text-anchor="middle" x="58.5" y="-1182" font-family="Times New Roman,serif" font-size="14.00">Conn_01x06_Female</text>
</g>
<!-- J2&#45;&gt;+5V -->
<g id="edge2" class="edge">
<title>J2&#45;&gt;+5V</title>
<path fill="none" stroke="black" d="M171.11,-1208.56C196.25,-1204.01 231.38,-1197.64 237.74,-1196.48"/>
</g>
<!-- GND8 -->
<g id="node28" class="node">
<title>GND8</title>
<ellipse fill="black" stroke="black" cx="239.75" cy="-1240.3" rx="1.8" ry="1.8"/>
<text xml:space="preserve" text-anchor="middle" x="223.33" y="-1225.2" font-family="Times New Roman,serif" font-size="14.00">GND</text>
</g>
<!-- J2&#45;&gt;GND8 -->
<g id="edge24" class="edge">
<title>J2&#45;&gt;GND8</title>
<path fill="none" stroke="black" d="M171.11,-1220.82C196.25,-1228.06 231.38,-1238.18 237.74,-1240.01"/>
</g>
<!-- RESET -->
<g id="node62" class="node">
<title>RESET</title>
<ellipse fill="black" stroke="black" cx="239.75" cy="-1218.3" rx="1.8" ry="1.8"/>
<text xml:space="preserve" text-anchor="middle" x="217.33" y="-1203.2" font-family="Times New Roman,serif" font-size="14.00">RESET</text>
</g>
<!-- J2&#45;&gt;RESET -->
<g id="edge62" class="edge">
<title>J2&#45;&gt;RESET</title>
<path fill="none" stroke="black" d="M171.11,-1214.69C196.25,-1216.03 231.38,-1217.91 237.74,-1218.25"/>
</g>
<!-- J1 -->
<g id="node4" class="node">
<title>J1</title>
<polygon fill="none" stroke="black" points="171,-738.3 117,-738.3 117,-702.3 171,-702.3 171,-738.3"/>
<text xml:space="preserve" text-anchor="middle" x="144" y="-715.25" font-family="Times New Roman,serif" font-size="14.00">J1</text>
<text xml:space="preserve" text-anchor="middle" x="86.63" y="-689" font-family="Times New Roman,serif" font-size="14.00">DB9_Male</text>
</g>
<!-- J1&#45;&gt;+5V -->
<g id="edge3" class="edge">
<title>J1&#45;&gt;+5V</title>
<path fill="none" stroke="black" d="M170.68,-738.69C173.06,-741.33 175.16,-744.21 176.75,-747.3 221.33,-834.19 155.51,-1106.17 212.75,-1185.3 218.96,-1193.88 233.2,-1195.81 237.5,-1196.21"/>
</g>
<!-- DOWN -->
<g id="node9" class="node">
<title>DOWN</title>
<ellipse fill="black" stroke="black" cx="239.75" cy="-696.3" rx="1.8" ry="1.8"/>
<text xml:space="preserve" text-anchor="middle" x="216.58" y="-681.2" font-family="Times New Roman,serif" font-size="14.00">DOWN</text>
</g>
<!-- J1&#45;&gt;DOWN -->
<g id="edge12" class="edge">
<title>J1&#45;&gt;DOWN</title>
<path fill="none" stroke="black" d="M171.11,-713.61C196.25,-707.18 231.38,-698.19 237.74,-696.56"/>
</g>
<!-- FIRE -->
<g id="node11" class="node">
<title>FIRE</title>
<ellipse fill="black" stroke="black" cx="239.75" cy="-892.3" rx="1.8" ry="1.8"/>
<text xml:space="preserve" text-anchor="middle" x="223.33" y="-877.2" font-family="Times New Roman,serif" font-size="14.00">FIRE</text>
</g>
<!-- J1&#45;&gt;FIRE -->
<g id="edge14" class="edge">
<title>J1&#45;&gt;FIRE</title>
<path fill="none" stroke="black" d="M169.83,-738.67C172.42,-741.35 174.82,-744.24 176.75,-747.3 209.73,-799.41 172.25,-834.8 212.75,-881.3 219.7,-889.28 233.43,-891.63 237.55,-892.16"/>
</g>
<!-- GND18 -->
<g id="node42" class="node">
<title>GND18</title>
<ellipse fill="black" stroke="black" cx="239.75" cy="-720.3" rx="1.8" ry="1.8"/>
<text xml:space="preserve" text-anchor="middle" x="223.33" y="-705.2" font-family="Times New Roman,serif" font-size="14.00">GND</text>
</g>
<!-- J1&#45;&gt;GND18 -->
<g id="edge34" class="edge">
<title>J1&#45;&gt;GND18</title>
<path fill="none" stroke="black" d="M171.11,-720.3C196.25,-720.3 231.38,-720.3 237.74,-720.3"/>
</g>
<!-- LEFT -->
<g id="node43" class="node">
<title>LEFT</title>
<ellipse fill="black" stroke="black" cx="239.75" cy="-669.3" rx="1.8" ry="1.8"/>
<text xml:space="preserve" text-anchor="middle" x="221.83" y="-654.2" font-family="Times New Roman,serif" font-size="14.00">LEFT</text>
</g>
<!-- J1&#45;&gt;LEFT -->
<g id="edge35" class="edge">
<title>J1&#45;&gt;LEFT</title>
<path fill="none" stroke="black" d="M171.11,-706.09C196.25,-692.42 231.38,-673.31 237.74,-669.85"/>
</g>
<!-- POTX -->
<g id="node59" class="node">
<title>POTX</title>
<ellipse fill="black" stroke="black" cx="239.75" cy="-848.3" rx="1.8" ry="1.8"/>
<text xml:space="preserve" text-anchor="middle" x="220.33" y="-833.2" font-family="Times New Roman,serif" font-size="14.00">POTX</text>
</g>
<!-- J1&#45;&gt;POTX -->
<g id="edge55" class="edge">
<title>J1&#45;&gt;POTX</title>
<path fill="none" stroke="black" d="M169.17,-738.59C171.94,-741.32 174.55,-744.24 176.75,-747.3 201.9,-782.28 182.59,-806.54 212.75,-837.3 220.16,-844.86 233.58,-847.49 237.59,-848.13"/>
</g>
<!-- POTY -->
<g id="node60" class="node">
<title>POTY</title>
<ellipse fill="black" stroke="black" cx="239.75" cy="-785.3" rx="1.8" ry="1.8"/>
<text xml:space="preserve" text-anchor="middle" x="220.33" y="-770.2" font-family="Times New Roman,serif" font-size="14.00">POTY</text>
</g>
<!-- J1&#45;&gt;POTY -->
<g id="edge57" class="edge">
<title>J1&#45;&gt;POTY</title>
<path fill="none" stroke="black" d="M166.55,-738.53C182.6,-751.91 203.31,-768.69 212.75,-774.3 221.85,-779.71 234.1,-783.82 237.71,-784.97"/>
</g>
<!-- RIGHT -->
<g id="node63" class="node">
<title>RIGHT</title>
<ellipse fill="black" stroke="black" cx="239.75" cy="-544.3" rx="1.8" ry="1.8"/>
<text xml:space="preserve" text-anchor="middle" x="217.33" y="-529.2" font-family="Times New Roman,serif" font-size="14.00">RIGHT</text>
</g>
<!-- J1&#45;&gt;RIGHT -->
<g id="edge64" class="edge">
<title>J1&#45;&gt;RIGHT</title>
<path fill="none" stroke="black" d="M169.19,-702.03C171.96,-699.3 174.57,-696.36 176.75,-693.3 202.25,-657.55 195.63,-641.73 212.75,-601.3 222.25,-578.86 235.03,-552.05 238.08,-545.7"/>
</g>
<!-- UP -->
<g id="node64" class="node">
<title>UP</title>
<ellipse fill="black" stroke="black" cx="239.75" cy="-342.3" rx="1.8" ry="1.8"/>
<text xml:space="preserve" text-anchor="middle" x="229.33" y="-327.2" font-family="Times New Roman,serif" font-size="14.00">UP</text>
</g>
<!-- J1&#45;&gt;UP -->
<g id="edge67" class="edge">
<title>J1&#45;&gt;UP</title>
<path fill="none" stroke="black" d="M170.58,-701.86C172.97,-699.23 175.11,-696.36 176.75,-693.3 241.76,-571.78 168.08,-515.68 212.75,-385.3 219.08,-366.81 234.24,-347.76 237.93,-343.28"/>
</g>
<!-- U1 -->
<g id="node5" class="node">
<title>U1</title>
<polygon fill="none" stroke="black" points="171,-1063.3 117,-1063.3 117,-1027.3 171,-1027.3 171,-1063.3"/>
<text xml:space="preserve" text-anchor="middle" x="144" y="-1040.25" font-family="Times New Roman,serif" font-size="14.00">U1</text>
<text xml:space="preserve" text-anchor="middle" x="78.38" y="-1014" font-family="Times New Roman,serif" font-size="14.00">ATtiny814&#45;SS</text>
</g>
<!-- U1&#45;&gt;+5V -->
<g id="edge4" class="edge">
<title>U1&#45;&gt;+5V</title>
<path fill="none" stroke="black" d="M149.39,-1063.69C157.29,-1093.1 176.55,-1150.88 212.75,-1185.3 220.42,-1192.59 233.66,-1195.41 237.61,-1196.11"/>
<text xml:space="preserve" text-anchor="middle" x="134.76" y="-1050.39" font-family="Times New Roman,serif" font-size="14.00">VDD</text>
</g>
<!-- BTN1 -->
<g id="node6" class="node">
<title>BTN1</title>
<polygon fill="none" stroke="black" points="266.75,-1136.3 212.75,-1136.3 212.75,-1100.3 266.75,-1100.3 266.75,-1136.3"/>
<text xml:space="preserve" text-anchor="middle" x="239.75" y="-1113.25" font-family="Times New Roman,serif" font-size="14.00">BTN1</text>
</g>
<!-- U1&#45;&gt;BTN1 -->
<g id="edge5" class="edge">
<title>U1&#45;&gt;BTN1</title>
<path fill="none" stroke="black" d="M168.66,-1063.72C182.87,-1074.79 200.89,-1088.82 215.1,-1099.88"/>
</g>
<!-- BTN2 -->
<g id="node7" class="node">
<title>BTN2</title>
<polygon fill="none" stroke="black" points="266.75,-1064.3 212.75,-1064.3 212.75,-1028.3 266.75,-1028.3 266.75,-1064.3"/>
<text xml:space="preserve" text-anchor="middle" x="239.75" y="-1041.25" font-family="Times New Roman,serif" font-size="14.00">BTN2</text>
</g>
<!-- U1&#45;&gt;BTN2 -->
<g id="edge7" class="edge">
<title>U1&#45;&gt;BTN2</title>
<path fill="none" stroke="black" d="M171.11,-1045.58C184.01,-1045.72 199.53,-1045.88 212.45,-1046.02"/>
</g>
<!-- BTN3 -->
<g id="node8" class="node">
<title>BTN3</title>
<polygon fill="none" stroke="black" points="266.75,-992.3 212.75,-992.3 212.75,-956.3 266.75,-956.3 266.75,-992.3"/>
<text xml:space="preserve" text-anchor="middle" x="239.75" y="-969.25" font-family="Times New Roman,serif" font-size="14.00">BTN3</text>
</g>
<!-- U1&#45;&gt;BTN3 -->
<g id="edge10" class="edge">
<title>U1&#45;&gt;BTN3</title>
<path fill="none" stroke="black" d="M169.14,-1027.02C183.03,-1016.5 200.43,-1003.32 214.36,-992.77"/>
</g>
<!-- U1&#45;&gt;FIRE -->
<g id="edge13" class="edge">
<title>U1&#45;&gt;FIRE</title>
<path fill="none" stroke="black" d="M168.75,-1027.05C171.72,-1024.03 174.5,-1020.75 176.75,-1017.3 205.73,-972.77 176.99,-942.6 212.75,-903.3 219.87,-895.47 233.49,-893.02 237.57,-892.45"/>
</g>
<!-- GND12 -->
<g id="node34" class="node">
<title>GND12</title>
<ellipse fill="black" stroke="black" cx="239.75" cy="-1174.3" rx="1.8" ry="1.8"/>
<text xml:space="preserve" text-anchor="middle" x="223.33" y="-1159.2" font-family="Times New Roman,serif" font-size="14.00">GND</text>
</g>
<!-- U1&#45;&gt;GND12 -->
<g id="edge28" class="edge">
<title>U1&#45;&gt;GND12</title>
<path fill="none" stroke="black" d="M151.27,-1063.72C160.82,-1089.26 181.27,-1135.42 212.75,-1163.3 220.67,-1170.32 233.74,-1173.32 237.62,-1174.09"/>
<text xml:space="preserve" text-anchor="middle" x="165.89" y="-1050.42" font-family="Times New Roman,serif" font-size="14.00">GND</text>
</g>
<!-- OUT_BTN2 -->
<g id="node55" class="node">
<title>OUT_BTN2</title>
<ellipse fill="black" stroke="black" cx="239.75" cy="-914.3" rx="1.8" ry="1.8"/>
<text xml:space="preserve" text-anchor="middle" x="203.83" y="-899.2" font-family="Times New Roman,serif" font-size="14.00">OUT_BTN2</text>
</g>
<!-- U1&#45;&gt;OUT_BTN2 -->
<g id="edge49" class="edge">
<title>U1&#45;&gt;OUT_BTN2</title>
<path fill="none" stroke="black" d="M168.54,-1026.91C171.54,-1023.91 174.39,-1020.67 176.75,-1017.3 201.92,-981.32 182.13,-956.77 212.75,-925.3 220.13,-917.71 233.57,-915.1 237.58,-914.47"/>
</g>
<!-- OUT_BTN3 -->
<g id="node57" class="node">
<title>OUT_BTN3</title>
<ellipse fill="black" stroke="black" cx="239.75" cy="-936.3" rx="1.8" ry="1.8"/>
<text xml:space="preserve" text-anchor="middle" x="203.83" y="-921.2" font-family="Times New Roman,serif" font-size="14.00">OUT_BTN3</text>
</g>
<!-- U1&#45;&gt;OUT_BTN3 -->
<g id="edge52" class="edge">
<title>U1&#45;&gt;OUT_BTN3</title>
<path fill="none" stroke="black" d="M167.9,-1027C171.07,-1023.94 174.13,-1020.66 176.75,-1017.3 198.24,-989.7 187.11,-971.1 212.75,-947.3 220.51,-940.1 233.68,-937.22 237.61,-936.49"/>
</g>
<!-- RAPID -->
<g id="node61" class="node">
<title>RAPID</title>
<ellipse fill="black" stroke="black" cx="239.75" cy="-137.3" rx="1.8" ry="1.8"/>
<text xml:space="preserve" text-anchor="middle" x="217.7" y="-122.2" font-family="Times New Roman,serif" font-size="14.00">RAPID</text>
</g>
<!-- U1&#45;&gt;RAPID -->
<g id="edge61" class="edge">
<title>U1&#45;&gt;RAPID</title>
<path fill="none" stroke="black" d="M170.22,-1026.87C172.82,-1023.95 175.1,-1020.75 176.75,-1017.3 257.98,-847.08 145.89,-345.67 212.75,-169.3 218.33,-154.57 233.52,-141.53 237.68,-138.15"/>
</g>
<!-- U1&#45;&gt;RESET -->
<g id="edge63" class="edge">
<title>U1&#45;&gt;RESET</title>
<path fill="none" stroke="black" d="M147.99,-1063.61C154.26,-1096.54 171.77,-1166.15 212.75,-1207.3 220.22,-1214.8 233.59,-1217.48 237.59,-1218.13"/>
</g>
<!-- BTN1&#45;&gt;BTN1 -->
<g id="edge6" class="edge">
<title>BTN1&#45;&gt;BTN1</title>
<path fill="none" stroke="black" d="M228.03,-1136.45C226.22,-1145.84 230.13,-1154.3 239.75,-1154.3 249.37,-1154.3 253.28,-1145.84 251.47,-1136.45"/>
</g>
<!-- GND11 -->
<g id="node33" class="node">
<title>GND11</title>
<ellipse fill="black" stroke="black" cx="304.55" cy="-1118.3" rx="1.8" ry="1.8"/>
<text xml:space="preserve" text-anchor="middle" x="288.12" y="-1103.2" font-family="Times New Roman,serif" font-size="14.00">GND</text>
</g>
<!-- BTN1&#45;&gt;GND11 -->
<g id="edge27" class="edge">
<title>BTN1&#45;&gt;GND11</title>
<path fill="none" stroke="black" d="M267.02,-1118.3C281.81,-1118.3 298.16,-1118.3 302.46,-1118.3"/>
</g>
<!-- BTN2&#45;&gt;BTN2 -->
<g id="edge8" class="edge">
<title>BTN2&#45;&gt;BTN2</title>
<path fill="none" stroke="black" d="M228.03,-1064.45C226.22,-1073.84 230.13,-1082.3 239.75,-1082.3 249.37,-1082.3 253.28,-1073.84 251.47,-1064.45"/>
</g>
<!-- GND15 -->
<g id="node38" class="node">
<title>GND15</title>
<ellipse fill="black" stroke="black" cx="304.55" cy="-1046.3" rx="1.8" ry="1.8"/>
<text xml:space="preserve" text-anchor="middle" x="288.12" y="-1031.2" font-family="Times New Roman,serif" font-size="14.00">GND</text>
</g>
<!-- BTN2&#45;&gt;GND15 -->
<g id="edge31" class="edge">
<title>BTN2&#45;&gt;GND15</title>
<path fill="none" stroke="black" d="M267.02,-1046.3C281.81,-1046.3 298.16,-1046.3 302.46,-1046.3"/>
</g>
<!-- BTN3&#45;&gt;BTN3 -->
<g id="edge9" class="edge">
<title>BTN3&#45;&gt;BTN3</title>
<path fill="none" stroke="black" d="M228.03,-992.45C226.22,-1001.84 230.13,-1010.3 239.75,-1010.3 249.37,-1010.3 253.28,-1001.84 251.47,-992.45"/>
</g>
<!-- GND2 -->
<g id="node17" class="node">
<title>GND2</title>
<ellipse fill="black" stroke="black" cx="304.55" cy="-974.3" rx="1.8" ry="1.8"/>
<text xml:space="preserve" text-anchor="middle" x="288.12" y="-959.2" font-family="Times New Roman,serif" font-size="14.00">GND</text>
</g>
<!-- BTN3&#45;&gt;GND2 -->
<g id="edge18" class="edge">
<title>BTN3&#45;&gt;GND2</title>
<path fill="none" stroke="black" d="M267.02,-974.3C281.81,-974.3 298.16,-974.3 302.46,-974.3"/>
</g>
<!-- R9 -->
<g id="node10" class="node">
<title>R9</title>
<polygon fill="none" stroke="black" points="171,-684.3 117,-684.3 117,-648.3 171,-648.3 171,-684.3"/>
<text xml:space="preserve" text-anchor="middle" x="144" y="-661.25" font-family="Times New Roman,serif" font-size="14.00">R9</text>
<text xml:space="preserve" text-anchor="middle" x="113.63" y="-635" font-family="Times New Roman,serif" font-size="14.00">0</text>
</g>
<!-- R9&#45;&gt;DOWN -->
<g id="edge11" class="edge">
<title>R9&#45;&gt;DOWN</title>
<path fill="none" stroke="black" d="M171.11,-674.66C196.25,-682.7 231.38,-693.94 237.74,-695.98"/>
</g>
<!-- N$2 -->
<g id="node47" class="node">
<title>N$2</title>
<ellipse fill="black" stroke="black" cx="239.75" cy="-637.3" rx="1.8" ry="1.8"/>
</g>
<!-- R9&#45;&gt;N$2 -->
<g id="edge39" class="edge">
<title>R9&#45;&gt;N$2</title>
<path fill="none" stroke="black" d="M171.11,-658.22C196.25,-650.45 231.38,-639.58 237.74,-637.61"/>
</g>
<!-- R4 -->
<g id="node12" class="node">
<title>R4</title>
<polygon fill="none" stroke="black" points="171,-1008.3 117,-1008.3 117,-972.3 171,-972.3 171,-1008.3"/>
<text xml:space="preserve" text-anchor="middle" x="144" y="-985.25" font-family="Times New Roman,serif" font-size="14.00">R4</text>
<text xml:space="preserve" text-anchor="middle" x="108.75" y="-959" font-family="Times New Roman,serif" font-size="14.00">1K</text>
</g>
<!-- R4&#45;&gt;FIRE -->
<g id="edge15" class="edge">
<title>R4&#45;&gt;FIRE</title>
<path fill="none" stroke="black" d="M168.39,-971.96C171.35,-969.2 174.22,-966.28 176.75,-963.3 196.86,-939.58 189.27,-923.7 212.75,-903.3 220.74,-896.36 233.76,-893.3 237.63,-892.51"/>
</g>
<!-- GND13 -->
<g id="node35" class="node">
<title>GND13</title>
<ellipse fill="black" stroke="black" cx="239.75" cy="-870.3" rx="1.8" ry="1.8"/>
<text xml:space="preserve" text-anchor="middle" x="223.33" y="-855.2" font-family="Times New Roman,serif" font-size="14.00">GND</text>
</g>
<!-- R4&#45;&gt;GND13 -->
<g id="edge29" class="edge">
<title>R4&#45;&gt;GND13</title>
<path fill="none" stroke="black" d="M169.07,-971.94C171.86,-969.22 174.5,-966.32 176.75,-963.3 200.52,-931.37 184.42,-909.25 212.75,-881.3 220.29,-873.86 233.61,-871.15 237.6,-870.48"/>
</g>
<!-- GND0 -->
<g id="node13" class="node">
<title>GND0</title>
<ellipse fill="black" stroke="black" cx="239.75" cy="-826.3" rx="1.8" ry="1.8"/>
<text xml:space="preserve" text-anchor="middle" x="223.33" y="-811.2" font-family="Times New Roman,serif" font-size="14.00">GND</text>
</g>
<!-- R5 -->
<g id="node14" class="node">
<title>R5</title>
<polygon fill="none" stroke="black" points="171,-900.3 117,-900.3 117,-864.3 171,-864.3 171,-900.3"/>
<text xml:space="preserve" text-anchor="middle" x="144" y="-877.25" font-family="Times New Roman,serif" font-size="14.00">R5</text>
<text xml:space="preserve" text-anchor="middle" x="108.75" y="-851" font-family="Times New Roman,serif" font-size="14.00">1K</text>
</g>
<!-- R5&#45;&gt;GND0 -->
<g id="edge16" class="edge">
<title>R5&#45;&gt;GND0</title>
<path fill="none" stroke="black" d="M170.36,-863.83C182.8,-855.19 198.2,-845.12 212.75,-837.3 222.07,-832.29 234.17,-827.9 237.73,-826.65"/>
</g>
<!-- R5&#45;&gt;POTX -->
<g id="edge54" class="edge">
<title>R5&#45;&gt;POTX</title>
<path fill="none" stroke="black" d="M171.11,-872.83C196.25,-863.71 231.38,-850.97 237.74,-848.67"/>
</g>
<!-- GND1 -->
<g id="node15" class="node">
<title>GND1</title>
<ellipse fill="black" stroke="black" cx="239.75" cy="-612.3" rx="1.8" ry="1.8"/>
<text xml:space="preserve" text-anchor="middle" x="223.33" y="-597.2" font-family="Times New Roman,serif" font-size="14.00">GND</text>
</g>
<!-- DOWN1 -->
<g id="node16" class="node">
<title>DOWN1</title>
<polygon fill="none" stroke="black" points="176.75,-630.3 111.25,-630.3 111.25,-594.3 176.75,-594.3 176.75,-630.3"/>
<text xml:space="preserve" text-anchor="middle" x="144" y="-607.25" font-family="Times New Roman,serif" font-size="14.00">DOWN1</text>
</g>
<!-- DOWN1&#45;&gt;GND1 -->
<g id="edge17" class="edge">
<title>DOWN1&#45;&gt;GND1</title>
<path fill="none" stroke="black" d="M177,-612.3C201.61,-612.3 232.33,-612.3 237.87,-612.3"/>
</g>
<!-- DOWN1&#45;&gt;N$2 -->
<g id="edge40" class="edge">
<title>DOWN1&#45;&gt;N$2</title>
<path fill="none" stroke="black" d="M177,-620.83C201.61,-627.4 232.33,-635.59 237.87,-637.07"/>
</g>
<!-- GND3 -->
<g id="node18" class="node">
<title>GND3</title>
<ellipse fill="black" stroke="black" cx="239.75" cy="-1321.3" rx="1.8" ry="1.8"/>
<text xml:space="preserve" text-anchor="middle" x="223.33" y="-1306.2" font-family="Times New Roman,serif" font-size="14.00">GND</text>
</g>
<!-- H2 -->
<g id="node19" class="node">
<title>H2</title>
<polygon fill="none" stroke="black" points="171,-1339.3 117,-1339.3 117,-1303.3 171,-1303.3 171,-1339.3"/>
<text xml:space="preserve" text-anchor="middle" x="144" y="-1316.25" font-family="Times New Roman,serif" font-size="14.00">H2</text>
<text xml:space="preserve" text-anchor="middle" x="63.38" y="-1290" font-family="Times New Roman,serif" font-size="14.00">MountingHole_Pad</text>
</g>
<!-- H2&#45;&gt;GND3 -->
<g id="edge19" class="edge">
<title>H2&#45;&gt;GND3</title>
<path fill="none" stroke="black" d="M171.11,-1321.3C196.25,-1321.3 231.38,-1321.3 237.74,-1321.3"/>
</g>
<!-- GND4 -->
<g id="node20" class="node">
<title>GND4</title>
<ellipse fill="black" stroke="black" cx="239.75" cy="-450.3" rx="1.8" ry="1.8"/>
<text xml:space="preserve" text-anchor="middle" x="223.33" y="-435.2" font-family="Times New Roman,serif" font-size="14.00">GND</text>
</g>
<!-- LEFT1 -->
<g id="node21" class="node">
<title>LEFT1</title>
<polygon fill="none" stroke="black" points="171.5,-468.3 116.5,-468.3 116.5,-432.3 171.5,-432.3 171.5,-468.3"/>
<text xml:space="preserve" text-anchor="middle" x="144" y="-445.25" font-family="Times New Roman,serif" font-size="14.00">LEFT1</text>
</g>
<!-- LEFT1&#45;&gt;GND4 -->
<g id="edge20" class="edge">
<title>LEFT1&#45;&gt;GND4</title>
<path fill="none" stroke="black" d="M171.86,-450.3C196.97,-450.3 231.5,-450.3 237.76,-450.3"/>
</g>
<!-- N$3 -->
<g id="node48" class="node">
<title>N$3</title>
<ellipse fill="black" stroke="black" cx="239.75" cy="-517.3" rx="1.8" ry="1.8"/>
</g>
<!-- LEFT1&#45;&gt;N$3 -->
<g id="edge42" class="edge">
<title>LEFT1&#45;&gt;N$3</title>
<path fill="none" stroke="black" d="M170.62,-468.61C195.77,-486.59 231.29,-511.97 237.73,-516.57"/>
</g>
<!-- GND5 -->
<g id="node22" class="node">
<title>GND5</title>
<ellipse fill="black" stroke="black" cx="239.75" cy="-763.3" rx="1.8" ry="1.8"/>
<text xml:space="preserve" text-anchor="middle" x="223.33" y="-748.2" font-family="Times New Roman,serif" font-size="14.00">GND</text>
</g>
<!-- R6 -->
<g id="node23" class="node">
<title>R6</title>
<polygon fill="none" stroke="black" points="171,-792.3 117,-792.3 117,-756.3 171,-756.3 171,-792.3"/>
<text xml:space="preserve" text-anchor="middle" x="144" y="-769.25" font-family="Times New Roman,serif" font-size="14.00">R6</text>
<text xml:space="preserve" text-anchor="middle" x="108.75" y="-743" font-family="Times New Roman,serif" font-size="14.00">1K</text>
</g>
<!-- R6&#45;&gt;GND5 -->
<g id="edge21" class="edge">
<title>R6&#45;&gt;GND5</title>
<path fill="none" stroke="black" d="M171.11,-771.24C196.25,-768.29 231.38,-764.17 237.74,-763.42"/>
</g>
<!-- R6&#45;&gt;POTY -->
<g id="edge56" class="edge">
<title>R6&#45;&gt;POTY</title>
<path fill="none" stroke="black" d="M171.11,-777.36C196.25,-780.31 231.38,-784.43 237.74,-785.18"/>
</g>
<!-- GND6 -->
<g id="node24" class="node">
<title>GND6</title>
<ellipse fill="black" stroke="black" cx="239.75" cy="-396.3" rx="1.8" ry="1.8"/>
<text xml:space="preserve" text-anchor="middle" x="223.33" y="-381.2" font-family="Times New Roman,serif" font-size="14.00">GND</text>
</g>
<!-- RIGHT1 -->
<g id="node25" class="node">
<title>RIGHT1</title>
<polygon fill="none" stroke="black" points="176,-414.3 112,-414.3 112,-378.3 176,-378.3 176,-414.3"/>
<text xml:space="preserve" text-anchor="middle" x="144" y="-391.25" font-family="Times New Roman,serif" font-size="14.00">RIGHT1</text>
</g>
<!-- RIGHT1&#45;&gt;GND6 -->
<g id="edge22" class="edge">
<title>RIGHT1&#45;&gt;GND6</title>
<path fill="none" stroke="black" d="M176.48,-396.3C201.16,-396.3 232.25,-396.3 237.86,-396.3"/>
</g>
<!-- N$4 -->
<g id="node49" class="node">
<title>N$4</title>
<ellipse fill="black" stroke="black" cx="239.75" cy="-423.3" rx="1.8" ry="1.8"/>
</g>
<!-- RIGHT1&#45;&gt;N$4 -->
<g id="edge43" class="edge">
<title>RIGHT1&#45;&gt;N$4</title>
<path fill="none" stroke="black" d="M176.48,-405.37C201.16,-412.47 232.25,-421.43 237.86,-423.04"/>
</g>
<!-- GND7 -->
<g id="node26" class="node">
<title>GND7</title>
<ellipse fill="black" stroke="black" cx="239.75" cy="-115.3" rx="1.8" ry="1.8"/>
<text xml:space="preserve" text-anchor="middle" x="223.33" y="-100.2" font-family="Times New Roman,serif" font-size="14.00">GND</text>
</g>
<!-- RAPID1 -->
<g id="node27" class="node">
<title>RAPID1</title>
<polygon fill="none" stroke="black" points="175.63,-144.3 112.38,-144.3 112.38,-108.3 175.63,-108.3 175.63,-144.3"/>
<text xml:space="preserve" text-anchor="middle" x="144" y="-121.25" font-family="Times New Roman,serif" font-size="14.00">RAPID1</text>
</g>
<!-- RAPID1&#45;&gt;GND7 -->
<g id="edge23" class="edge">
<title>RAPID1&#45;&gt;GND7</title>
<path fill="none" stroke="black" d="M175.96,-122.67C200.7,-119.76 232.17,-116.07 237.85,-115.41"/>
</g>
<!-- RAPID1&#45;&gt;RAPID -->
<g id="edge59" class="edge">
<title>RAPID1&#45;&gt;RAPID</title>
<path fill="none" stroke="black" d="M175.96,-129.93C200.7,-132.84 232.17,-136.53 237.85,-137.19"/>
</g>
<!-- GND9 -->
<g id="node29" class="node">
<title>GND9</title>
<ellipse fill="black" stroke="black" cx="239.75" cy="-18.3" rx="1.8" ry="1.8"/>
<text xml:space="preserve" text-anchor="middle" x="223.33" y="-3.2" font-family="Times New Roman,serif" font-size="14.00">GND</text>
</g>
<!-- D1 -->
<g id="node30" class="node">
<title>D1</title>
<polygon fill="none" stroke="black" points="171,-36.3 117,-36.3 117,-0.3 171,-0.3 171,-36.3"/>
<text xml:space="preserve" text-anchor="middle" x="144" y="-13.25" font-family="Times New Roman,serif" font-size="14.00">D1</text>
</g>
<!-- D1&#45;&gt;GND9 -->
<g id="edge25" class="edge">
<title>D1&#45;&gt;GND9</title>
<path fill="none" stroke="black" d="M171.11,-18.3C196.25,-18.3 231.38,-18.3 237.74,-18.3"/>
<text xml:space="preserve" text-anchor="middle" x="166.24" y="-5" font-family="Times New Roman,serif" font-size="14.00">K</text>
</g>
<!-- N$6 -->
<g id="node53" class="node">
<title>N$6</title>
<ellipse fill="black" stroke="black" cx="239.75" cy="-56.3" rx="1.8" ry="1.8"/>
</g>
<!-- D1&#45;&gt;N$6 -->
<g id="edge48" class="edge">
<title>D1&#45;&gt;N$6</title>
<path fill="none" stroke="black" d="M171.11,-28.89C196.25,-39.07 231.38,-53.31 237.74,-55.89"/>
<text xml:space="preserve" text-anchor="middle" x="166.24" y="-15.59" font-family="Times New Roman,serif" font-size="14.00">A</text>
</g>
<!-- GND10 -->
<g id="node31" class="node">
<title>GND10</title>
<ellipse fill="black" stroke="black" cx="239.75" cy="-180.3" rx="1.8" ry="1.8"/>
<text xml:space="preserve" text-anchor="middle" x="223.33" y="-165.2" font-family="Times New Roman,serif" font-size="14.00">GND</text>
</g>
<!-- JUMP1 -->
<g id="node32" class="node">
<title>JUMP1</title>
<polygon fill="none" stroke="black" points="173,-198.3 115,-198.3 115,-162.3 173,-162.3 173,-198.3"/>
<text xml:space="preserve" text-anchor="middle" x="144" y="-175.25" font-family="Times New Roman,serif" font-size="14.00">JUMP1</text>
</g>
<!-- JUMP1&#45;&gt;GND10 -->
<g id="edge26" class="edge">
<title>JUMP1&#45;&gt;GND10</title>
<path fill="none" stroke="black" d="M173.38,-180.3C197.96,-180.3 230.61,-180.3 237.46,-180.3"/>
</g>
<!-- N$5 -->
<g id="node51" class="node">
<title>N$5</title>
<ellipse fill="black" stroke="black" cx="239.75" cy="-218.3" rx="1.8" ry="1.8"/>
</g>
<!-- JUMP1&#45;&gt;N$5 -->
<g id="edge45" class="edge">
<title>JUMP1&#45;&gt;N$5</title>
<path fill="none" stroke="black" d="M173.38,-191.8C198.39,-201.94 231.76,-215.47 237.79,-217.91"/>
</g>
<!-- GND14 -->
<g id="node36" class="node">
<title>GND14</title>
<ellipse fill="black" stroke="black" cx="239.75" cy="-288.3" rx="1.8" ry="1.8"/>
<text xml:space="preserve" text-anchor="middle" x="223.33" y="-273.2" font-family="Times New Roman,serif" font-size="14.00">GND</text>
</g>
<!-- UP1 -->
<g id="node37" class="node">
<title>UP1</title>
<polygon fill="none" stroke="black" points="171,-306.3 117,-306.3 117,-270.3 171,-270.3 171,-306.3"/>
<text xml:space="preserve" text-anchor="middle" x="144" y="-283.25" font-family="Times New Roman,serif" font-size="14.00">UP1</text>
</g>
<!-- UP1&#45;&gt;GND14 -->
<g id="edge30" class="edge">
<title>UP1&#45;&gt;GND14</title>
<path fill="none" stroke="black" d="M171.11,-288.3C196.25,-288.3 231.38,-288.3 237.74,-288.3"/>
</g>
<!-- N$1 -->
<g id="node45" class="node">
<title>N$1</title>
<ellipse fill="black" stroke="black" cx="239.75" cy="-315.3" rx="1.8" ry="1.8"/>
</g>
<!-- UP1&#45;&gt;N$1 -->
<g id="edge37" class="edge">
<title>UP1&#45;&gt;N$1</title>
<path fill="none" stroke="black" d="M171.11,-295.82C196.25,-303.06 231.38,-313.18 237.74,-315.01"/>
</g>
<!-- GND17 -->
<g id="node40" class="node">
<title>GND17</title>
<ellipse fill="black" stroke="black" cx="239.75" cy="-1375.3" rx="1.8" ry="1.8"/>
<text xml:space="preserve" text-anchor="middle" x="223.33" y="-1360.2" font-family="Times New Roman,serif" font-size="14.00">GND</text>
</g>
<!-- H1 -->
<g id="node41" class="node">
<title>H1</title>
<polygon fill="none" stroke="black" points="171,-1393.3 117,-1393.3 117,-1357.3 171,-1357.3 171,-1393.3"/>
<text xml:space="preserve" text-anchor="middle" x="144" y="-1370.25" font-family="Times New Roman,serif" font-size="14.00">H1</text>
<text xml:space="preserve" text-anchor="middle" x="63.38" y="-1344" font-family="Times New Roman,serif" font-size="14.00">MountingHole_Pad</text>
</g>
<!-- H1&#45;&gt;GND17 -->
<g id="edge33" class="edge">
<title>H1&#45;&gt;GND17</title>
<path fill="none" stroke="black" d="M171.11,-1375.3C196.25,-1375.3 231.38,-1375.3 237.74,-1375.3"/>
</g>
<!-- R10 -->
<g id="node44" class="node">
<title>R10</title>
<polygon fill="none" stroke="black" points="171,-576.3 117,-576.3 117,-540.3 171,-540.3 171,-576.3"/>
<text xml:space="preserve" text-anchor="middle" x="144" y="-553.25" font-family="Times New Roman,serif" font-size="14.00">R10</text>
<text xml:space="preserve" text-anchor="middle" x="113.63" y="-527" font-family="Times New Roman,serif" font-size="14.00">0</text>
</g>
<!-- R10&#45;&gt;LEFT -->
<g id="edge36" class="edge">
<title>R10&#45;&gt;LEFT</title>
<path fill="none" stroke="black" d="M168.45,-576.59C171.4,-579.35 174.25,-582.29 176.75,-585.3 197.34,-610.12 191.85,-623.74 212.75,-648.3 220.87,-657.84 233.8,-666.23 237.64,-668.62"/>
</g>
<!-- R10&#45;&gt;N$3 -->
<g id="edge41" class="edge">
<title>R10&#45;&gt;N$3</title>
<path fill="none" stroke="black" d="M171.11,-546.88C196.25,-535.88 231.38,-520.52 237.74,-517.74"/>
</g>
<!-- R8 -->
<g id="node46" class="node">
<title>R8</title>
<polygon fill="none" stroke="black" points="171,-360.3 117,-360.3 117,-324.3 171,-324.3 171,-360.3"/>
<text xml:space="preserve" text-anchor="middle" x="144" y="-337.25" font-family="Times New Roman,serif" font-size="14.00">R8</text>
<text xml:space="preserve" text-anchor="middle" x="113.63" y="-311" font-family="Times New Roman,serif" font-size="14.00">0</text>
</g>
<!-- R8&#45;&gt;N$1 -->
<g id="edge38" class="edge">
<title>R8&#45;&gt;N$1</title>
<path fill="none" stroke="black" d="M171.11,-334.78C196.25,-327.54 231.38,-317.42 237.74,-315.59"/>
</g>
<!-- R8&#45;&gt;UP -->
<g id="edge68" class="edge">
<title>R8&#45;&gt;UP</title>
<path fill="none" stroke="black" d="M171.11,-342.3C196.25,-342.3 231.38,-342.3 237.74,-342.3"/>
</g>
<!-- R11 -->
<g id="node50" class="node">
<title>R11</title>
<polygon fill="none" stroke="black" points="171,-522.3 117,-522.3 117,-486.3 171,-486.3 171,-522.3"/>
<text xml:space="preserve" text-anchor="middle" x="144" y="-499.25" font-family="Times New Roman,serif" font-size="14.00">R11</text>
<text xml:space="preserve" text-anchor="middle" x="113.63" y="-473" font-family="Times New Roman,serif" font-size="14.00">0</text>
</g>
<!-- R11&#45;&gt;N$4 -->
<g id="edge44" class="edge">
<title>R11&#45;&gt;N$4</title>
<path fill="none" stroke="black" d="M167.13,-486.01C170.41,-483.15 173.7,-480.19 176.75,-477.3 193.64,-461.3 194.69,-453.97 212.75,-439.3 221.64,-432.08 234.04,-425.65 237.69,-423.82"/>
</g>
<!-- R11&#45;&gt;RIGHT -->
<g id="edge65" class="edge">
<title>R11&#45;&gt;RIGHT</title>
<path fill="none" stroke="black" d="M171.11,-515.44C196.25,-526.17 231.38,-541.15 237.74,-543.87"/>
</g>
<!-- R7 -->
<g id="node52" class="node">
<title>R7</title>
<polygon fill="none" stroke="black" points="171,-252.3 117,-252.3 117,-216.3 171,-216.3 171,-252.3"/>
<text xml:space="preserve" text-anchor="middle" x="144" y="-229.25" font-family="Times New Roman,serif" font-size="14.00">R7</text>
<text xml:space="preserve" text-anchor="middle" x="113.63" y="-203" font-family="Times New Roman,serif" font-size="14.00">0</text>
</g>
<!-- R7&#45;&gt;N$5 -->
<g id="edge46" class="edge">
<title>R7&#45;&gt;N$5</title>
<path fill="none" stroke="black" d="M171.11,-229.84C196.25,-225.55 231.38,-219.56 237.74,-218.47"/>
</g>
<!-- R7&#45;&gt;UP -->
<g id="edge66" class="edge">
<title>R7&#45;&gt;UP</title>
<path fill="none" stroke="black" d="M168.49,-252.56C171.43,-255.33 174.28,-258.28 176.75,-261.3 197.67,-286.85 189.94,-302.42 212.75,-326.3 220.66,-334.58 233.73,-340.28 237.62,-341.86"/>
</g>
<!-- R3 -->
<g id="node54" class="node">
<title>R3</title>
<polygon fill="none" stroke="black" points="171,-90.3 117,-90.3 117,-54.3 171,-54.3 171,-90.3"/>
<text xml:space="preserve" text-anchor="middle" x="144" y="-67.25" font-family="Times New Roman,serif" font-size="14.00">R3</text>
<text xml:space="preserve" text-anchor="middle" x="106.88" y="-41" font-family="Times New Roman,serif" font-size="14.00">330</text>
</g>
<!-- R3&#45;&gt;N$6 -->
<g id="edge47" class="edge">
<title>R3&#45;&gt;N$6</title>
<path fill="none" stroke="black" d="M171.11,-67.84C196.25,-63.55 231.38,-57.56 237.74,-56.47"/>
</g>
<!-- R3&#45;&gt;RAPID -->
<g id="edge60" class="edge">
<title>R3&#45;&gt;RAPID</title>
<path fill="none" stroke="black" d="M166.55,-90.53C182.6,-103.91 203.31,-120.69 212.75,-126.3 221.85,-131.71 234.1,-135.82 237.71,-136.97"/>
</g>
<!-- R2 -->
<g id="node56" class="node">
<title>R2</title>
<polygon fill="none" stroke="black" points="171,-846.3 117,-846.3 117,-810.3 171,-810.3 171,-846.3"/>
<text xml:space="preserve" text-anchor="middle" x="144" y="-823.25" font-family="Times New Roman,serif" font-size="14.00">R2</text>
<text xml:space="preserve" text-anchor="middle" x="108.75" y="-797" font-family="Times New Roman,serif" font-size="14.00">1K</text>
</g>
<!-- R2&#45;&gt;OUT_BTN2 -->
<g id="edge50" class="edge">
<title>R2&#45;&gt;OUT_BTN2</title>
<path fill="none" stroke="black" d="M167.77,-846.58C170.89,-849.4 173.97,-852.35 176.75,-855.3 195.02,-874.72 191.75,-886.87 212.75,-903.3 221.09,-909.82 233.87,-913.17 237.65,-914.06"/>
</g>
<!-- R2&#45;&gt;POTY -->
<g id="edge58" class="edge">
<title>R2&#45;&gt;POTY</title>
<path fill="none" stroke="black" d="M171.11,-816.32C196.25,-804.79 231.38,-788.68 237.74,-785.76"/>
</g>
<!-- R1 -->
<g id="node58" class="node">
<title>R1</title>
<polygon fill="none" stroke="black" points="171,-954.3 117,-954.3 117,-918.3 171,-918.3 171,-954.3"/>
<text xml:space="preserve" text-anchor="middle" x="144" y="-931.25" font-family="Times New Roman,serif" font-size="14.00">R1</text>
<text xml:space="preserve" text-anchor="middle" x="108.75" y="-905" font-family="Times New Roman,serif" font-size="14.00">1K</text>
</g>
<!-- R1&#45;&gt;OUT_BTN3 -->
<g id="edge51" class="edge">
<title>R1&#45;&gt;OUT_BTN3</title>
<path fill="none" stroke="black" d="M171.11,-936.3C196.25,-936.3 231.38,-936.3 237.74,-936.3"/>
</g>
<!-- R1&#45;&gt;POTX -->
<g id="edge53" class="edge">
<title>R1&#45;&gt;POTX</title>
<path fill="none" stroke="black" d="M167.83,-918.06C170.94,-915.25 174,-912.28 176.75,-909.3 195.32,-889.17 191.35,-876.38 212.75,-859.3 221.02,-852.7 233.85,-849.41 237.65,-848.54"/>
</g>
</g>
</svg>
